<?xml version="1.0" encoding="utf-8"?>
<!-- Generator: Adobe Illustrator 27.6.1, SVG Export Plug-In . SVG Version: 6.00 Build 0)  -->
<svg version="1.1" id="Layer_1" xmlns="http://www.w3.org/2000/svg" xmlns:xlink="http://www.w3.org/1999/xlink" x="0px" y="0px"
	 viewBox="0 0 525 400" style="enable-background:new 0 0 525 400;" xml:space="preserve">
<style type="text/css">
	.st0{fill:#193550;}
	.st1{fill:#F3F3F3;}
	.st2{fill:#E6E6E5;}
	.st3{fill:#F8B4B6;}
	.st4{fill:#302E41;}
	.st5{fill:#403E56;}
</style>
<path class="st0" d="M149.92,148.79c2.87-3.16,7.61-2.24,10.76-0.01c4.06,2.87,5.22,8.12,5.82,12.76
	c1.01,7.87,1.31,18.99,10.24,22.28c4.12,1.52,8.84,0.26,12.32-2.2c3.8-2.7,6.18-6.84,7.77-11.14c1.92-5.2,3.04-10.77,3.98-16.22
	c0.97-5.58,1.6-11.21,1.88-16.87c0.28-5.53,0.1-11.02-0.12-16.55c-0.17-4.31-0.24-8.85,1.22-12.97c1.47-4.17,4.89-7.34,9.39-7.75
	c4.37-0.41,8.87,1.44,12.03,4.41c7.58,7.13,7.94,18.78,9.63,28.34c0.89,5.02,2.19,10.11,4.92,14.48c2.24,3.6,5.36,6.61,8.96,8.85
	c7.25,4.51,16.48,5.83,24.52,2.73c7.85-3.03,14.17-9.64,16.9-17.59c0.68-1.96,1.09-3.99,1.3-6.05c0.1-0.96-1.4-0.95-1.5,0
	c-0.9,8.77-6.53,16.71-14.24,20.87c-7.94,4.28-17.55,3.74-25.3-0.7c-3.81-2.18-7.13-5.26-9.43-9.01c-2.79-4.55-3.99-9.85-4.86-15.06
	c-1.57-9.4-2.29-20.2-9.33-27.42c-5.47-5.6-15.53-7.85-21.4-1.61c-6.05,6.42-4.24,16.77-4.04,24.74
	c0.28,11.68-0.92,23.38-3.59,34.75c-1.16,4.95-2.5,10.05-5.41,14.3c-2.66,3.88-7.02,6.89-11.87,6.84c-4.84-0.05-8.23-3.6-9.95-7.84
	c-1.81-4.47-1.93-9.3-2.56-14.02c-0.58-4.33-1.62-9.13-4.87-12.3c-2.53-2.47-6.27-4.05-9.83-3.49c-1.71,0.27-3.22,1.1-4.38,2.38
	C148.22,148.44,149.27,149.51,149.92,148.79L149.92,148.79L149.92,148.79z"/>
<g>
	<path class="st1" d="M366.7,309.15c-0.84-1.42-4.5,0.1-5.17-1.19c-0.67-1.29,2.72-3.25,4.66-7.73c0.35-0.81,2.55-5.9,0.92-7.47
		c-3.09-2.98-17.24,9.31-22.19,5.29c-1.09-0.88-1.85-2.64-5.13-5.51c-1.31-1.14-2.1-1.65-2.86-1.46c-1.09,0.27-1.17,1.73-2.34,4.58
		c-1.75,4.29-2.78,4.03-3.8,7.45c-0.76,2.54-0.58,4.02-1.47,4.3c-1.26,0.41-2.42-2.29-4.01-2.05c-1.63,0.25-2.61,3.38-2.92,5.73
		c-0.58,4.41,1.03,7.31,1.93,10.37c0.97,3.32,1.55,8.37-0.7,15.53l-22.28,62.77c4.92-12.88,19.16-48.19,25.14-61.31
		c1.73-3.79,3.63-7.63,7.55-9.15c3.77-1.46,8.95-0.59,15.55-2.18c0.77-0.19,2.91-0.73,3.18-1.99c0.22-1.04-1.04-1.62-0.84-2.6
		c0.26-1.31,2.73-1.32,5.78-2.83c2.14-1.06,3.48-2.33,4.63-3.42C362.67,315.98,367.82,311.05,366.7,309.15L366.7,309.15z"/>
	<path class="st1" d="M279.05,342.2c-0.94,0-1.25,2.24-2.08,2.19c-0.82-0.04-0.81-2.27-2.45-4.52c-0.3-0.4-2.16-2.96-3.4-2.61
		c-2.35,0.66-0.4,11.15-3.81,12.42c-0.75,0.28-1.83,0.14-4.18,0.93c-0.94,0.31-1.42,0.55-1.54,0.98c-0.18,0.61,0.51,1.07,1.58,2.47
		c1.6,2.09,1.17,2.53,2.56,4.01c1.03,1.1,1.8,1.44,1.69,1.96c-0.16,0.73-1.82,0.53-2.16,1.38c-0.35,0.87,0.91,2.26,1.97,3.09
		c1.99,1.56,3.89,1.6,5.65,2.04c1.91,0.48,4.56,1.65,7.42,4.82l24.38,29.04c-4.9-6.13-18.12-23.31-22.83-30.03
		c-1.36-1.94-2.7-3.99-2.31-6.34c0.37-2.27,2.29-4.56,3.42-8.26c0.13-0.43,0.48-1.64-0.06-2.13c-0.45-0.41-1.09,0.04-1.52-0.34
		c-0.57-0.5,0.14-1.72,0.28-3.65c0.1-1.36-0.14-2.38-0.34-3.26C281.24,346.14,280.31,342.19,279.05,342.2L279.05,342.2z"/>
	<path class="st1" d="M297.85,346.42l-0.57-5.07l0.26-0.38c1.2-1.78,1.81-3.51,1.82-5.16c0-0.26-0.01-0.52-0.02-0.79
		c-0.05-1.06-0.11-2.37,0.58-3.9c0.38-0.85,1.46-2.83,3.09-2.59c0.44,0.06,0.77,0.26,1.02,0.5c0.04-0.06,0.07-0.12,0.12-0.18
		c0.51-0.77,0.91-1.1,1.29-1.42c0.3-0.24,0.6-0.5,1.08-1.09c0.21-0.26,0.37-0.49,0.51-0.69c0.42-0.58,0.97-1.28,1.93-1.27
		c1.03,0.05,1.57,0.9,1.93,1.47c0.64,1.01,0.93,1.74,1.12,2.22c0.07,0.18,0.15,0.37,0.19,0.44c0.33,0.49,3.04,0.03,4.06-0.13
		c2.29-0.38,4.27-0.71,5.09,0.73c0.58,1.03,0.15,2.4-1.33,4.17c-0.46,0.55-0.95,0.97-1.39,1.3c0.36,0.22,0.68,0.55,0.81,1.06l0,0
		c0.31,1.23-0.75,2.46-3.14,3.66c-0.59,0.3-1.39,0.7-2.51,0.9c-0.53,0.09-1,0.11-1.41,0.12c-0.01,0.23-0.06,0.49-0.21,0.75
		c-0.42,0.77-1.29,1.14-2.61,1.05c-1.45-0.08-2.64-0.35-3.69-0.59c-0.92-0.21-1.71-0.39-2.33-0.35c-1.15,0.09-2.04,1.02-3.08,2.21
		L297.85,346.42L297.85,346.42z"/>
	<path class="st1" d="M300.49,316.24l-4.76,1.83l-0.44-0.15c-2.02-0.71-3.86-0.86-5.45-0.45c-0.25,0.07-0.5,0.14-0.76,0.22
		c-1.01,0.32-2.27,0.71-3.92,0.43c-0.92-0.15-3.11-0.7-3.28-2.33c-0.05-0.44,0.06-0.81,0.22-1.11c-0.07-0.02-0.13-0.04-0.2-0.07
		c-0.87-0.29-1.29-0.6-1.7-0.89c-0.31-0.22-0.63-0.46-1.33-0.77c-0.31-0.14-0.57-0.24-0.79-0.32c-0.67-0.26-1.49-0.61-1.72-1.55
		c-0.21-1.01,0.47-1.75,0.93-2.24c0.81-0.87,1.44-1.34,1.86-1.65c0.15-0.11,0.32-0.24,0.37-0.29c0.39-0.45-0.74-2.95-1.16-3.89
		c-0.95-2.12-1.77-3.95-0.58-5.11c0.85-0.83,2.28-0.75,4.37,0.23c0.65,0.31,1.18,0.68,1.61,1.01c0.12-0.4,0.35-0.8,0.82-1.06l0,0
		c1.11-0.61,2.57,0.1,4.34,2.11c0.44,0.5,1.03,1.17,1.5,2.2c0.22,0.49,0.36,0.94,0.48,1.33c0.23-0.05,0.49-0.06,0.78,0.01
		c0.85,0.21,1.43,0.96,1.68,2.26c0.29,1.42,0.33,2.64,0.36,3.72c0.03,0.94,0.06,1.75,0.26,2.34c0.38,1.09,1.5,1.72,2.92,2.42
		L300.49,316.24L300.49,316.24z"/>
	<path class="st1" d="M297.85,301.31l-0.57-5.07l0.26-0.38c1.2-1.78,1.81-3.51,1.82-5.16c0-0.26-0.01-0.52-0.02-0.79
		c-0.05-1.06-0.11-2.37,0.58-3.9c0.38-0.85,1.46-2.83,3.09-2.59c0.44,0.06,0.77,0.26,1.02,0.5c0.04-0.06,0.07-0.12,0.12-0.18
		c0.51-0.77,0.91-1.1,1.29-1.42c0.3-0.24,0.6-0.5,1.08-1.09c0.21-0.26,0.37-0.49,0.51-0.69c0.42-0.58,0.97-1.28,1.93-1.27
		c1.03,0.05,1.57,0.9,1.93,1.47c0.64,1.01,0.93,1.74,1.12,2.22c0.07,0.18,0.15,0.37,0.19,0.44c0.33,0.49,3.04,0.03,4.06-0.13
		c2.29-0.38,4.27-0.71,5.09,0.73c0.58,1.03,0.15,2.4-1.33,4.17c-0.46,0.55-0.95,0.97-1.39,1.3c0.36,0.22,0.68,0.55,0.81,1.06l0,0
		c0.31,1.23-0.75,2.46-3.14,3.66c-0.59,0.3-1.39,0.7-2.51,0.9c-0.53,0.09-1,0.11-1.41,0.12c-0.01,0.23-0.06,0.49-0.21,0.75
		c-0.42,0.77-1.29,1.14-2.61,1.05c-1.45-0.08-2.64-0.35-3.69-0.59c-0.92-0.21-1.71-0.39-2.33-0.35c-1.15,0.09-2.04,1.02-3.08,2.21
		L297.85,301.31L297.85,301.31z"/>
	<path class="st1" d="M303.04,399.69l-1.06-0.67l-0.26-1.23l0.26,1.23l-1.24,0.14c-0.02-0.12-0.09-0.38-0.19-0.79
		c-0.55-2.27-2.24-9.16-3.65-20.02c-0.98-7.58-1.54-15.38-1.66-23.17c-0.12-7.81,0.25-13.72,0.55-18.47
		c0.22-3.58,0.5-6.99,0.76-10.32c0.71-8.88,1.38-17.27,0.88-26.55c-0.11-2.07-0.34-6.39-2.86-10.98c-1.46-2.66-3.48-5.03-5.99-7.02
		l1.56-1.96c2.77,2.21,5,4.83,6.62,7.78c2.79,5.09,3.05,9.79,3.17,12.05c0.51,9.45-0.17,17.92-0.89,26.88
		c-0.26,3.31-0.54,6.71-0.76,10.28c-0.29,4.71-0.66,10.56-0.55,18.27c0.11,7.7,0.66,15.4,1.63,22.89
		c1.39,10.72,3.06,17.52,3.6,19.75C303.28,398.96,303.34,399.21,303.04,399.69L303.04,399.69z"/>
	<path class="st1" d="M283.99,285.82c-0.1,0-0.21,0-0.31-0.01c-2.13-0.12-4.11-1.39-5.87-3.8c-0.83-1.13-1.25-2.42-2.09-4.99
		c-0.13-0.4-0.77-2.41-1.15-5.18c-0.25-1.81-0.22-2.56,0.14-3.23c0.4-0.74,1.04-1.26,1.77-1.61c-0.03-0.24-0.01-0.49,0.1-0.74
		c0.43-1.04,1.56-0.91,2.18-0.84c0.31,0.04,0.7,0.09,1.12,0.07c0.66-0.03,1.01-0.23,1.55-0.52c0.51-0.28,1.15-0.63,2.1-0.82
		c1.86-0.39,3.43,0.14,3.94,0.31c2.71,0.9,4.05,3.01,5.59,5.45c0.31,0.49,1.37,2.27,2.07,4.71c0.5,1.76,0.43,2.55,0.28,3.13
		c-0.31,1.2-1.04,1.88-2.89,3.39c-1.93,1.58-2.9,2.38-3.73,2.86C286.82,285.12,285.61,285.82,283.99,285.82L283.99,285.82z"/>
</g>
<path class="st2" d="M230.97,87.26h-34.22c-0.86,0-1.56-0.7-1.56-1.56s0.7-1.56,1.56-1.56h34.22c0.86,0,1.56,0.7,1.56,1.56
	S231.83,87.26,230.97,87.26z"/>
<path class="st2" d="M283.97,178.26h-34.22c-0.86,0-1.56-0.7-1.56-1.56s0.7-1.56,1.56-1.56h34.22c0.86,0,1.56,0.7,1.56,1.56
	S284.83,178.26,283.97,178.26z"/>
<path class="st2" d="M311.97,240.26h-34.22c-0.86,0-1.56-0.7-1.56-1.56s0.7-1.56,1.56-1.56h34.22c0.86,0,1.56,0.7,1.56,1.56
	S312.83,240.26,311.97,240.26z"/>
<path class="st2" d="M155.97,53.26h-34.22c-0.86,0-1.56-0.7-1.56-1.56s0.7-1.56,1.56-1.56h34.22c0.86,0,1.56,0.7,1.56,1.56
	S156.83,53.26,155.97,53.26L155.97,53.26z"/>
<path class="st2" d="M294.41,222.11h-155.1c-0.55,0-1-0.45-1-1v-148c0-0.55,0.45-1,1-1s1,0.45,1,1v60.39
	c0,47.83,38.78,86.61,86.61,86.61h67.49c0.55,0,1,0.45,1,1S294.96,222.11,294.41,222.11L294.41,222.11z"/>
<path class="st2" d="M171.97,162.63h-34.22c-0.86,0-1.56-0.7-1.56-1.56s0.7-1.56,1.56-1.56h34.22c0.86,0,1.56,0.7,1.56,1.56
	S172.83,162.63,171.97,162.63z"/>
<g>
	<path id="uuid-5c502ea6-9d8d-47ac-9944-b5b4822d592a-622" class="st3" d="M138.04,167.08c5.43-1.79,8.9-6.05,7.76-9.5
		s-6.47-4.8-11.89-3.01c-2.18,0.69-4.16,1.89-5.78,3.5l-22.9,7.88l3.93,10.67l22.16-8.91C133.57,168.04,135.88,167.83,138.04,167.08
		L138.04,167.08z"/>
	<path id="uuid-ca9917be-6801-4c2d-b7fb-204f6c00dfb7-623" class="st3" d="M20.33,228.22c0.19,5.71,3.28,10.25,6.92,10.13
		s6.43-4.85,6.25-10.56c-0.04-2.28-0.63-4.52-1.72-6.53l-1.09-24.19l-11.34,0.75l2.28,23.77C20.66,223.66,20.22,225.93,20.33,228.22
		L20.33,228.22z"/>
	<g>
		<polygon class="st3" points="46.51,391.24 56.64,391.24 59.23,351.93 46.51,352.19 		"/>
		<path class="st4" d="M81.2,391.01L81.2,391.01c0.32,0.53,0.48,2.24,0.48,2.86l0,0c0,1.9-1.54,3.44-3.44,3.44H46.89
			c-1.29,0-2.34-1.05-2.34-2.34v-1.31c0,0-1.55-3.92,1.64-8.76c0,0,3.97,3.79,9.9-2.14l1.75-3.17l12.66,9.26l7.02,0.86
			C79.05,389.9,80.41,389.68,81.2,391.01L81.2,391.01L81.2,391.01z"/>
	</g>
	<g>
		<polygon class="st3" points="70.51,391.24 80.64,391.24 83.23,351.93 70.51,352.19 		"/>
		<path class="st4" d="M105.2,391.01L105.2,391.01c0.32,0.53,0.48,2.24,0.48,2.86l0,0c0,1.9-1.54,3.44-3.44,3.44H70.89
			c-1.29,0-2.34-1.05-2.34-2.34v-1.31c0,0-1.55-3.92,1.64-8.76c0,0,3.97,3.79,9.9-2.14l1.75-3.17l12.66,9.26l7.02,0.86
			C103.05,389.9,104.41,389.68,105.2,391.01L105.2,391.01L105.2,391.01z"/>
	</g>
	<circle class="st3" cx="52.4" cy="83.55" r="14.89"/>
	<polygon class="st4" points="31.8,207.43 38.8,307.43 42.8,374.43 61.8,373.43 59.8,300.43 63.8,255.43 69.8,373.43 84.92,373.43 
		90.8,208.43 58.3,203.93 	"/>
	<path class="st4" d="M57.8,95.43c-4.24,4.08-14.03,1.37-19,0c-2.74-0.76-4.39-1.54-5-3c-0.42-1.02-0.18-1.98-1-4
		c-0.48-1.18-0.73-1.27-1-2c-0.75-2.04,0.29-3.85,1-6c1.48-4.49-0.29-4.99,1-8c1.93-4.53,7.2-6.37,9-7c3.37-1.18,6.18-1.05,7-1
		c5.28,0.35,8.8,3.05,10,4c2.43,1.92,3.62,3.94,6,8c2.07,3.53,2.22,4.88,2,6c-0.34,1.7-1.32,1.71-2,4c-0.77,2.6,0.11,3.91-1,5
		c-0.75,0.74-1.44,0.43-3,1C59.65,93.21,58.59,94.66,57.8,95.43z"/>
	<path class="st4" d="M69.8,110.43c0,0-15-19-34-12l-6.15,12l-2.06,1.95c-8.62,8.16-12.64,20.07-10.71,31.79l8.92,54.26
		c0,0-1,21,6,27c0,0,10-19,34-10s29,4,29,4l-8-57L69.8,110.43L69.8,110.43z"/>
	<path class="st4" d="M64.8,113.43l-5,11l19,64l52-19l-7-12l-25,7C98.8,164.43,79.8,108.43,64.8,113.43z"/>
	<polygon class="st4" points="29.3,213.93 18.3,213.93 16.3,133.93 29.3,160.93 	"/>
</g>
<ellipse transform="matrix(0.1602 -0.9871 0.9871 0.1602 -20.7086 272.5152)" class="st5" cx="149.8" cy="148.43" rx="4.5" ry="4.5"/>
<circle class="st5" cx="179.8" cy="183.43" r="4.5"/>
<circle class="st5" cx="213.8" cy="99.43" r="4.5"/>
<circle class="st5" cx="263.8" cy="159.43" r="4.5"/>
<circle class="st5" cx="292.8" cy="135.43" r="4.5"/>
<g>
	<path class="st5" d="M284.22,39.95l8.23,3.9c-3.38-4.71-6.28-12.07-7.84-17.92c-2.64,5.45-6.89,12.13-11.09,16.11l8.7-2.24
		c-5.36,26.27-25.52,45.13-48.6,45.13l-0.33,0.95C257.4,85.88,278.75,67.28,284.22,39.95L284.22,39.95z"/>
	<path class="st0" d="M259.35-0.07h52c2.21,0,4,1.79,4,4s-1.79,4-4,4h-52c-2.21,0-4-1.79-4-4S257.14-0.07,259.35-0.07z"/>
</g>
<path class="st2" d="M294.48,230.29c-0.55,0-1.1-0.12-1.63-0.37c-1.3-0.61-2.12-1.83-2.18-3.26l-0.54-11.63
	c-0.07-1.49,0.71-2.85,2.03-3.54c1.32-0.69,2.88-0.56,4.07,0.35l7.92,6.06c0.95,0.73,1.5,1.83,1.49,3.03c0,1.2-0.55,2.3-1.51,3.02
	l-7.38,5.57C296.07,230.03,295.28,230.29,294.48,230.29z"/>
<path class="st2" d="M148.5,74.08c0,0.55-0.12,1.1-0.37,1.63c-0.61,1.3-1.83,2.12-3.26,2.18l-11.63,0.54
	c-1.49,0.07-2.85-0.71-3.54-2.03c-0.69-1.32-0.56-2.88,0.35-4.07l6.06-7.92c0.73-0.95,1.83-1.5,3.03-1.49c1.2,0,2.3,0.55,3.02,1.51
	l5.57,7.38C148.24,72.48,148.5,73.27,148.5,74.08z"/>
<path class="st0" d="M213.43,63.78c-5.92-1.42-12.25-0.13-17.31,3.21c-5.31,3.51-8.82,9.12-10.01,15.34
	c-2.45,12.83,5.04,25.65,16.89,30.75c12.45,5.37,27.27,1.77,36.31-8.2c4.48-4.94,7.28-11.19,8.13-17.79
	c0.83-6.51-0.12-14.02-4.06-19.45c-3.91-5.39-10.42-7.2-16.7-8.08c-6.1-0.86-14.19-1.23-17.49,5.23c-0.63,1.23-0.92,2.56-0.85,3.94
	c0.05,0.96,1.55,0.97,1.5,0c-0.15-3.02,1.86-5.54,4.44-6.9c2.99-1.57,6.6-1.44,9.86-1.09c5.89,0.63,12.57,1.76,16.81,6.28
	c4.23,4.5,5.5,11.37,5.23,17.34c-0.27,6.24-2.42,12.38-6.19,17.37c-7.43,9.85-20.44,14.53-32.4,11.35
	c-11.66-3.1-11.81-10.02-11.62-22.27c0.1-6.54-6.07-16.83-1.03-21.08c4.94-4.17,11.78-6.02,18.09-4.51
	C213.97,65.45,214.37,64.01,213.43,63.78L213.43,63.78L213.43,63.78z"/>
</svg>
